# This file uses centimeters as units for non-parametric coordinates.

mtllib rocket.mtl
g default
v 1.187262 1.187248 -6.513214
v 0.760520 1.836029 -6.513214
v -0.760507 1.836021 -6.513214
v -1.187234 1.187241 -6.513214
v -1.836038 0.760506 -6.513222
v -1.679009 -0.000008 -6.513222
v -1.836022 -0.760498 -6.513222
v -0.760507 -1.836029 -6.513214
v 0.000007 -1.679016 -6.513222
v 0.760505 -1.836014 -6.513214
v 1.836020 -0.760498 -6.513222
v 1.679023 0.000000 -6.513222
v 1.836020 0.760506 -6.513222
v 0.000007 1.679016 -6.513214
v 1.187247 -1.187241 -6.513214
v -1.187249 -1.187241 -6.513214
v 0.800483 0.800476 -4.472214
v 0.445884 1.076431 -4.472206
v -0.445870 1.076431 -4.472206
v -0.800469 0.800468 -4.472214
v -1.076440 0.445869 -4.472214
v -1.132043 0.000000 -4.472206
v -1.076425 -0.445869 -4.472206
v -0.445870 -1.076431 -4.472206
v 0.000007 -1.132034 -4.472206
v 0.445868 -1.076431 -4.472206
v 1.076438 -0.445869 -4.472214
v 1.132041 0.000000 -4.472214
v 1.076438 0.445869 -4.472214
v 0.000007 1.132027 -4.472206
v 0.800467 -0.800468 -4.472214
v -0.800469 -0.800468 -4.472206
v 0.229300 0.220734 0.000000
v 0.139350 0.290733 0.000000
v -0.086877 0.290733 0.000000
v -0.176827 0.220734 0.000000
v -0.246820 0.130791 0.000000
v -0.260934 0.017685 0.000000
v -0.246820 -0.095421 0.000000
v -0.086877 -0.255379 0.000000
v 0.026236 -0.269485 0.000000
v 0.139335 -0.255379 0.000000
v 0.299293 -0.095421 0.000000
v 0.313392 0.017677 0.000000
v 0.299293 0.130783 0.000000
v 0.026236 0.304840 0.000000
v 0.229300 -0.185371 0.000000
v -0.176827 -0.185371 0.000000
v 0.026236 0.017677 -0.000008
v 1.187232 1.187241 -16.222084
v 0.760505 1.836014 -16.222084
v -0.760507 1.836006 -16.222084
v -1.187234 1.187241 -16.222084
v -1.836007 0.760506 -16.222099
v -1.678994 -0.000008 -16.222099
v -1.836007 -0.760498 -16.222099
v -0.760507 -1.836014 -16.222084
v 0.000007 -1.679008 -16.222099
v 0.760505 -1.836006 -16.222084
v 1.836020 -0.760498 -16.222099
v 1.679007 0.000000 -16.222099
v 1.836020 0.760506 -16.222099
v 0.000007 1.679008 -16.222084
v 1.187232 -1.187225 -16.222084
v -1.187234 -1.187241 -16.222084
v 0.638175 0.629616 -16.292137
v 0.367087 0.840569 -16.292137
v -0.314614 0.840561 -16.292137
v -0.585702 0.629608 -16.292145
v -0.796655 0.358528 -16.292137
v -0.839166 0.017677 -16.292137
v -0.796655 -0.323158 -16.292145
v -0.314614 -0.805199 -16.292137
v 0.026221 -0.847702 -16.292137
v 0.367072 -0.805183 -16.292137
v 0.849128 -0.323158 -16.292145
v 0.891623 0.017685 -16.292137
v 0.849128 0.358536 -16.292137
v 0.026236 0.883072 -16.292137
v 0.638175 -0.594231 -16.292145
v -0.585702 -0.594238 -16.292137
v 0.158591 0.337196 -0.906494
v 0.026236 0.353706 -0.906494
v -0.106118 0.337196 -0.906494
v -0.211373 0.255287 -0.906494
v -0.293283 0.150032 -0.906494
v -0.309793 0.017685 -0.906494
v -0.293283 -0.114670 -0.906494
v -0.211373 -0.219925 -0.906494
v -0.106118 -0.301834 -0.906494
v 0.026236 -0.318344 -0.906494
v 0.158591 -0.301834 -0.906494
v 0.263846 -0.219925 -0.906494
v 0.345756 -0.114670 -0.906494
v 0.362266 0.017685 -0.906494
v 0.345756 0.150032 -0.906494
v 0.263846 0.255287 -0.906494
v 0.176810 0.381195 -0.942116
v 0.026236 0.399971 -0.942116
v -0.124337 0.381195 -0.942116
v -0.244088 0.288010 -0.942116
v -0.337289 0.168251 -0.942116
v -0.356057 0.017685 -0.942116
v -0.337289 -0.132889 -0.942116
v -0.244088 -0.252640 -0.942116
v -0.124337 -0.345833 -0.942116
v 0.026236 -0.364609 -0.942116
v 0.176810 -0.345833 -0.942116
v 0.296561 -0.252640 -0.942116
v 0.389762 -0.132889 -0.942116
v 0.408530 0.017685 -0.942116
v 0.389762 0.168251 -0.942116
v 0.296561 0.288010 -0.942116
v 0.544944 1.315620 -13.634041
v 0.000007 1.203110 -13.634041
v -0.544946 1.315613 -13.634041
v -0.850717 0.850731 -13.634041
v -1.315606 0.544952 -13.634048
v -1.203103 -0.000008 -13.634056
v -1.315621 -0.544945 -13.634056
v -0.850717 -0.850731 -13.634041
v -0.544946 -1.315620 -13.634041
v 0.000007 -1.203117 -13.634056
v 0.544944 -1.315613 -13.634041
v 0.850730 -0.850723 -13.634041
v 1.315635 -0.544952 -13.634048
v 1.203116 0.000000 -13.634056
v 1.315619 0.544945 -13.634056
v 0.850730 0.850739 -13.634041
v 0.850730 0.850739 -12.289375
v 1.315619 0.544945 -12.289383
v 1.203116 0.000000 -12.289383
v 1.315635 -0.544952 -12.289375
v 0.850730 -0.850723 -12.289375
v 0.544944 -1.315613 -12.289375
v -0.000009 -1.203117 -12.289383
v -0.544946 -1.315628 -12.289375
v -0.850717 -0.850731 -12.289375
v -1.315621 -0.544937 -12.289383
v -1.203103 -0.000008 -12.289383
v -1.315621 0.544952 -12.289375
v -0.850717 0.850739 -12.289375
v -0.544946 1.315613 -12.289375
v 0.000007 1.203117 -12.289375
v 0.544944 1.315628 -12.289375
v 0.638175 0.629616 -42.044769
v 0.367087 0.840569 -42.044769
v -0.314614 0.840561 -42.044769
v -0.585702 0.629608 -42.044777
v -0.796655 0.358528 -42.044769
v -0.839166 0.017677 -42.044769
v -0.796655 -0.323158 -42.044777
v -0.314614 -0.805199 -42.044769
v 0.026221 -0.847702 -42.044769
v 0.367072 -0.805183 -42.044769
v 0.849128 -0.323158 -42.044777
v 0.891623 0.017685 -42.044769
v 0.849128 0.358536 -42.044769
v 0.026236 0.883072 -42.044769
v 0.638175 -0.594231 -42.044777
v -0.585702 -0.594238 -42.044769
v 0.026252 0.017677 -42.044773
vt 0.719455 0.269761
vt 0.717927 0.282266
vt 0.630945 0.283404
vt 0.631346 0.270234
vt 0.717093 0.116577
vt 0.718426 0.129251
vt 0.630140 0.129306
vt 0.629557 0.116279
vt 0.715230 0.140740
vt 0.717238 0.152828
vt 0.632008 0.153762
vt 0.632097 0.141686
vt 0.714537 0.164172
vt 0.633478 0.165587
vt 0.714506 0.187311
vt 0.717127 0.199010
vt 0.633484 0.199942
vt 0.634193 0.188678
vt 0.714828 0.210446
vt 0.634409 0.211490
vt 0.715366 0.233815
vt 0.718249 0.245710
vt 0.632836 0.245968
vt 0.634101 0.234502
vt 0.716234 0.257627
vt 0.633080 0.258252
vt 0.721200 0.104627
vt 0.626709 0.102945
vt 0.722009 0.294985
vt 0.628416 0.296248
vt 0.717574 0.222187
vt 0.633457 0.222731
vt 0.716937 0.175978
vt 0.633021 0.177111
vt 0.591985 0.264377
vt 0.593400 0.255742
vt 0.592298 0.144721
vt 0.590640 0.136151
vt 0.594630 0.162663
vt 0.593637 0.153537
vt 0.595355 0.171906
vt 0.596427 0.200176
vt 0.596237 0.190705
vt 0.596383 0.209636
vt 0.595290 0.237726
vt 0.595835 0.228459
vt 0.594491 0.246875
vt 0.588312 0.128255
vt 0.589972 0.272372
vt 0.596227 0.219073
vt 0.595919 0.181293
vt 0.500996 0.237504
vt 0.501408 0.232357
vt 0.540765 0.242201
vt 0.539755 0.248892
vt 0.499869 0.242687
vt 0.538275 0.255290
vt 0.500095 0.165518
vt 0.498829 0.160361
vt 0.536851 0.146717
vt 0.538562 0.153057
vt 0.500647 0.170653
vt 0.539816 0.159712
vt 0.501397 0.175713
vt 0.540976 0.166431
vt 0.501659 0.180833
vt 0.541809 0.173270
vt 0.502206 0.185948
vt 0.542570 0.180123
vt 0.502290 0.191117
vt 0.542999 0.187046
vt 0.502663 0.196289
vt 0.543377 0.193981
vt 0.502577 0.201485
vt 0.543449 0.200934
vt 0.502782 0.206675
vt 0.543486 0.207887
vt 0.502530 0.211857
vt 0.543225 0.214816
vt 0.502570 0.217027
vt 0.542929 0.221738
vt 0.502152 0.222156
vt 0.542339 0.228599
vt 0.502020 0.227281
vt 0.541702 0.235451
vt 0.498663 0.236461
vt 0.498717 0.176406
vt 0.500096 0.206618
vt 0.499626 0.224333
vt 0.725479 0.268338
vt 0.727046 0.279549
vt 0.726656 0.118920
vt 0.725188 0.130070
vt 0.724773 0.141617
vt 0.724089 0.153125
vt 0.724181 0.164757
vt 0.724066 0.187900
vt 0.723769 0.199452
vt 0.724091 0.210966
vt 0.724281 0.233954
vt 0.724231 0.245444
vt 0.725002 0.256909
vt 0.728457 0.108564
vt 0.728740 0.289923
vt 0.723847 0.222487
vt 0.723802 0.176315
vt 0.542487 0.249943
vt 0.540849 0.256920
vt 0.539317 0.145010
vt 0.541253 0.151898
vt 0.542487 0.158840
vt 0.543796 0.165709
vt 0.544553 0.172705
vt 0.545448 0.179682
vt 0.545771 0.186746
vt 0.546256 0.193824
vt 0.546223 0.200908
vt 0.546358 0.208001
vt 0.545987 0.215050
vt 0.545781 0.222108
vt 0.545072 0.229082
vt 0.544513 0.236077
vt 0.543436 0.242979
vt 0.699018 0.282513
vt 0.700659 0.104261
vt 0.701663 0.295259
vt 0.698064 0.116512
vt 0.699234 0.129263
vt 0.697158 0.140945
vt 0.698710 0.153031
vt 0.696916 0.164479
vt 0.698695 0.176224
vt 0.697047 0.187608
vt 0.698944 0.199213
vt 0.697346 0.210673
vt 0.699288 0.222305
vt 0.697700 0.233965
vt 0.699681 0.245766
vt 0.698158 0.257763
vt 0.700301 0.269864
vt 0.687280 0.269933
vt 0.685869 0.257855
vt 0.687058 0.245804
vt 0.685690 0.234066
vt 0.686857 0.222386
vt 0.685461 0.210827
vt 0.686583 0.199350
vt 0.685178 0.187810
vt 0.686293 0.176392
vt 0.684937 0.164688
vt 0.686114 0.153169
vt 0.684872 0.141085
vt 0.686187 0.129271
vt 0.685127 0.116468
vt 0.686695 0.104013
vt 0.687832 0.295446
vt 0.686163 0.282681
vt 0.000000 0.000000
vt 1.000000 0.000000
vt 1.000000 1.000000
vt 0.000000 1.000000
vt 0.000000 0.000000
vt 1.000000 0.000000
vt 1.000000 1.000000
vt 0.000000 1.000000
vt 0.000000 0.000000
vt 1.000000 0.000000
vt 1.000000 1.000000
vt 0.000000 1.000000
vt 0.000000 0.000000
vt 1.000000 0.000000
vt 1.000000 1.000000
vt 0.000000 1.000000
vt 0.000000 0.000000
vt 1.000000 0.000000
vt 1.000000 1.000000
vt 0.000000 1.000000
vt 0.000000 0.000000
vt 1.000000 0.000000
vt 1.000000 1.000000
vt 0.000000 1.000000
vt 0.000000 0.000000
vt 1.000000 0.000000
vt 1.000000 1.000000
vt 0.000000 1.000000
vt 0.000000 0.000000
vt 1.000000 0.000000
vt 1.000000 1.000000
vt 0.000000 1.000000
vt 0.000000 0.000000
vt 1.000000 0.000000
vt 1.000000 1.000000
vt 0.000000 1.000000
vt 0.000000 0.000000
vt 1.000000 0.000000
vt 1.000000 1.000000
vt 0.000000 1.000000
vt 0.000000 0.000000
vt 1.000000 0.000000
vt 1.000000 1.000000
vt 0.000000 1.000000
vt 0.000000 0.000000
vt 1.000000 0.000000
vt 1.000000 1.000000
vt 0.000000 1.000000
vt 0.000000 0.000000
vt 1.000000 0.000000
vt 1.000000 1.000000
vt 0.000000 1.000000
vt 0.000000 0.000000
vt 1.000000 0.000000
vt 1.000000 1.000000
vt 0.000000 1.000000
vt 0.000000 0.000000
vt 1.000000 0.000000
vt 1.000000 1.000000
vt 0.000000 1.000000
vt 0.000000 0.000000
vt 1.000000 0.000000
vt 1.000000 1.000000
vt 0.000000 1.000000
vt 0.000000 0.000000
vt 1.000000 0.000000
vt 0.500000 1.000000
vt 0.000000 0.000000
vt 1.000000 0.000000
vt 0.500000 1.000000
vt 0.000000 0.000000
vt 1.000000 0.000000
vt 0.500000 1.000000
vt 0.000000 0.000000
vt 1.000000 0.000000
vt 0.500000 1.000000
vt 0.000000 0.000000
vt 1.000000 0.000000
vt 0.500000 1.000000
vt 0.000000 0.000000
vt 1.000000 0.000000
vt 0.500000 1.000000
vt 0.000000 0.000000
vt 1.000000 0.000000
vt 0.500000 1.000000
vt 0.000000 0.000000
vt 1.000000 0.000000
vt 0.500000 1.000000
vt 0.000000 0.000000
vt 1.000000 0.000000
vt 0.500000 1.000000
vt 0.000000 0.000000
vt 1.000000 0.000000
vt 0.500000 1.000000
vt 0.000000 0.000000
vt 1.000000 0.000000
vt 0.500000 1.000000
vt 0.000000 0.000000
vt 1.000000 0.000000
vt 0.500000 1.000000
vt 0.000000 0.000000
vt 1.000000 0.000000
vt 0.500000 1.000000
vt 0.000000 0.000000
vt 1.000000 0.000000
vt 0.500000 1.000000
vt 0.000000 0.000000
vt 1.000000 0.000000
vt 0.500000 1.000000
vt 0.000000 0.000000
vt 1.000000 0.000000
vt 0.500000 1.000000
vn 0.701444 0.701443 0.126310
vn 0.378156 0.912963 0.153286
vn 0.381393 0.920785 -0.081824
vn 0.705441 0.705432 -0.068703
vn -0.378158 0.912962 0.153288
vn -0.701438 0.701449 0.126311
vn -0.705428 0.705444 -0.068701
vn -0.381401 0.920781 -0.081823
vn -0.912967 0.378145 0.153287
vn -0.991991 -0.000007 0.126310
vn -0.997637 -0.000013 -0.068702
vn -0.920784 0.381395 -0.081824
vn -0.912964 -0.378154 0.153288
vn -0.920785 -0.381393 -0.081823
vn -0.378165 -0.912959 0.153287
vn 0.000006 -0.991991 0.126311
vn 0.000011 -0.997637 -0.068700
vn -0.381404 -0.920780 -0.081823
vn 0.378170 -0.912957 0.153285
vn 0.381402 -0.920781 -0.081822
vn 0.912956 -0.378172 0.153285
vn 0.991991 0.000003 0.126311
vn 0.997637 0.000001 -0.068700
vn 0.920781 -0.381402 -0.081821
vn 0.912958 0.378167 0.153288
vn 0.920786 0.381390 -0.081822
vn -0.000007 0.991991 0.126310
vn -0.000009 0.997637 -0.068701
vn 0.701438 -0.701449 0.126310
vn 0.705434 -0.705438 -0.068701
vn -0.701446 -0.701441 0.126311
vn -0.705443 -0.705429 -0.068702
vn 0.707014 0.707002 0.016728
vn 0.382665 0.923848 0.008514
vn 0.367447 0.888112 0.276114
vn 0.683667 0.683741 0.255143
vn -0.382670 0.923846 0.008515
vn -0.707002 0.707014 0.016730
vn -0.683107 0.682680 0.259449
vn -0.368152 0.887089 0.278454
vn -0.923846 0.382670 0.008512
vn -0.999860 -0.000015 0.016728
vn -0.965128 -0.000177 0.261779
vn -0.886812 0.366719 0.281214
vn -0.923847 -0.382667 0.008513
vn -0.886124 -0.367183 0.282775
vn -0.382675 -0.923844 0.008515
vn 0.000010 -0.999860 0.016728
vn -0.000250 -0.965394 0.260795
vn -0.367467 -0.886175 0.282244
vn 0.382674 -0.923844 0.008514
vn 0.366771 -0.887202 0.279914
vn 0.923844 -0.382674 0.008514
vn 0.999860 0.000000 0.016728
vn 0.966756 -0.000172 0.255701
vn 0.887467 -0.368225 0.277150
vn 0.923849 0.382662 0.008513
vn 0.888160 0.367743 0.275567
vn -0.000007 0.999860 0.016730
vn -0.000256 0.966492 0.256697
vn 0.707008 -0.707008 0.016730
vn 0.682940 -0.683378 0.258045
vn -0.707017 -0.706999 0.016728
vn -0.682387 -0.682295 0.262337
vn 0.376710 0.909441 0.176087
vn 0.694951 0.694971 0.184547
vn 0.702757 0.702777 0.110621
vn 0.380018 0.917429 0.117940
vn -0.000000 0.982822 0.184555
vn -0.000000 0.993863 0.110616
vn -0.376687 0.909453 0.176076
vn -0.379994 0.917440 0.117933
vn -0.694944 0.694979 0.184545
vn -0.702749 0.702785 0.110620
vn -0.909437 0.376724 0.176076
vn -0.917424 0.380032 0.117938
vn -0.982823 -0.000000 0.184549
vn -0.993863 0.000000 0.110620
vn -0.909442 -0.376712 0.176078
vn -0.917428 -0.380022 0.117937
vn -0.694959 -0.694964 0.184547
vn -0.702764 -0.702771 0.110615
vn -0.376700 -0.909449 0.176069
vn -0.380009 -0.917435 0.117926
vn 0.000000 -0.982826 0.184537
vn -0.000000 -0.993864 0.110607
vn 0.376721 -0.909437 0.176085
vn 0.380034 -0.917423 0.117936
vn 0.694958 -0.694963 0.184553
vn 0.702764 -0.702770 0.110619
vn 0.909465 -0.376658 0.176075
vn 0.917448 -0.379971 0.117945
vn 0.982821 -0.000001 0.184559
vn 0.993862 0.000001 0.110628
vn 0.909464 0.376657 0.176080
vn 0.917448 0.379971 0.117946
vn -0.000000 0.000000 1.000000
vn 0.382539 0.923908 -0.007580
vn 0.701862 0.701852 -0.121628
vn 0.705915 0.705930 -0.057859
vn 0.381868 0.921916 -0.065175
vn -0.700654 0.700745 -0.134316
vn -0.382882 0.923717 -0.012176
vn -0.381787 0.921856 -0.066492
vn -0.705819 0.705817 -0.060350
vn -0.989978 0.000023 -0.141220
vn -0.923828 0.382409 -0.017490
vn -0.921729 0.381815 -0.068068
vn -0.998095 -0.000005 -0.061701
vn -0.923672 -0.382637 -0.020465
vn -0.921682 -0.381765 -0.068973
vn 0.000049 -0.990389 -0.138307
vn -0.382735 -0.923653 -0.019453
vn -0.381759 -0.921708 -0.068665
vn 0.000013 -0.998130 -0.061132
vn 0.382420 -0.923867 -0.015012
vn 0.381836 -0.921775 -0.067322
vn 0.992372 0.000033 -0.123281
vn 0.923752 -0.382869 -0.009629
vn 0.921904 -0.381798 -0.065760
vn 0.998306 -0.000005 -0.058183
vn 0.923878 0.382631 -0.006504
vn 0.921944 0.381852 -0.064876
vn 0.000041 0.992004 -0.126205
vn -0.000021 0.998272 -0.058759
vn 0.701121 -0.701057 -0.130187
vn 0.705818 -0.705886 -0.059541
vn -0.699844 -0.699862 -0.142870
vn -0.705746 -0.705745 -0.062023
vn 0.374779 0.902842 0.210755
vn 0.000549 0.978224 0.207551
vn -0.372371 0.902592 0.216025
vn -0.690298 0.691215 0.213801
vn -0.900334 0.374167 0.222255
vn -0.975702 0.000368 0.219101
vn -0.900131 -0.372535 0.225793
vn -0.689635 -0.689815 0.220362
vn -0.372197 -0.900573 0.224583
vn 0.000547 -0.976203 0.216860
vn 0.374620 -0.900865 0.219323
vn 0.691691 -0.690801 0.210614
vn 0.903099 -0.372833 0.213092
vn 0.978700 0.000371 0.205295
vn 0.903260 0.374455 0.209536
vn 0.692323 0.692144 0.204024
vn 0.707016 0.707028 -0.015473
vn 0.382622 0.923794 -0.014334
vn -0.382634 0.923789 -0.014334
vn -0.707016 0.707028 -0.015473
vn -0.923788 0.382636 -0.014335
vn -0.999880 -0.000001 -0.015473
vn -0.923785 -0.382644 -0.014335
vn -0.382642 -0.923786 -0.014334
vn 0.000022 -0.999880 -0.015473
vn 0.382632 -0.923790 -0.014334
vn 0.923795 -0.382621 -0.014334
vn 0.999880 -0.000001 -0.015473
vn 0.923798 0.382611 -0.014334
vn -0.000011 0.999880 -0.015473
vn 0.706998 -0.707047 -0.015472
vn -0.707023 -0.707022 -0.015473
vn 0.000000 0.000001 -1.000000
s 1
g polySurface1 umbrella_MESH1
usemtl lambert3SG
f 129/140/1 114/124/2 145/157/3 130/141/4
f 116/127/5 117/128/6 142/153/7 143/154/8
f 118/129/9 119/130/10 140/151/11 141/152/12
f 119/130/10 120/131/13 139/150/14 140/151/11
f 122/133/15 123/134/16 136/147/17 137/148/18
f 123/134/16 124/135/19 135/146/20 136/147/17
f 126/137/21 127/138/22 132/143/23 133/144/24
f 127/138/22 128/139/25 131/142/26 132/143/23
f 115/125/27 116/127/5 143/154/8 144/155/28
f 114/124/2 115/126/27 144/156/28 145/157/3
f 128/139/25 129/140/1 130/141/4 131/142/26
f 117/128/6 118/129/9 141/152/12 142/153/7
f 125/136/29 126/137/21 133/144/24 134/145/30
f 120/131/13 121/132/31 138/149/32 139/150/14
f 124/135/19 125/136/29 134/145/30 135/146/20
f 121/132/31 122/133/15 137/148/18 138/149/32
f 1/4/33 2/3/34 18/35/35 17/36/36
f 3/8/37 4/7/38 20/37/39 19/38/40
f 5/12/41 6/11/42 22/39/43 21/40/44
f 6/11/42 7/14/45 23/41/46 22/39/43
f 8/18/47 9/17/48 25/42/49 24/43/50
f 9/17/48 10/20/51 26/44/52 25/42/49
f 11/24/53 12/23/54 28/45/55 27/46/56
f 12/23/54 13/26/57 29/47/58 28/45/55
f 14/28/59 3/8/37 19/38/40 30/48/60
f 2/3/34 14/30/59 30/49/60 18/35/35
f 13/26/57 1/4/33 17/36/36 29/47/58
f 4/7/38 5/12/41 21/40/44 20/37/39
f 15/32/61 11/24/53 27/46/56 31/50/62
f 7/14/45 16/34/63 32/51/64 23/41/46
f 10/20/51 15/32/61 31/50/62 26/44/52
f 16/34/63 8/18/47 24/43/50 32/51/64
f 34/52/65 33/53/66 97/54/67 82/55/68
f 46/56/69 34/52/65 82/55/68 83/57/70
f 35/58/71 46/59/69 83/60/70 84/61/72
f 36/62/73 35/58/71 84/61/72 85/63/74
f 37/64/75 36/62/73 85/63/74 86/65/76
f 38/66/77 37/64/75 86/65/76 87/67/78
f 39/68/79 38/66/77 87/67/78 88/69/80
f 48/70/81 39/68/79 88/69/80 89/71/82
f 40/72/83 48/70/81 89/71/82 90/73/84
f 41/74/85 40/72/83 90/73/84 91/75/86
f 42/76/87 41/74/85 91/75/86 92/77/88
f 47/78/89 42/76/87 92/77/88 93/79/90
f 43/80/91 47/78/89 93/79/90 94/81/92
f 44/82/93 43/80/91 94/81/92 95/83/94
f 45/84/95 44/82/93 95/83/94 96/85/96
f 45/84/95 96/85/96 97/54/67 33/53/66
f 33/53/66 34/52/65 49/86/97
f 35/58/71 36/62/73 49/87/97
f 37/64/75 38/66/77 49/87/97
f 38/66/77 39/68/79 49/87/97
f 40/72/83 41/74/85 49/88/97
f 41/74/85 42/76/87 49/88/97
f 43/80/91 44/82/93 49/89/97
f 44/82/93 45/84/95 49/89/97
f 46/59/69 35/58/71 49/87/97
f 34/52/65 46/56/69 49/86/97
f 45/84/95 33/53/66 49/86/97
f 36/62/73 37/64/75 49/87/97
f 47/78/89 43/80/91 49/88/97
f 39/68/79 48/70/81 49/87/97
f 42/76/87 47/78/89 49/88/97
f 48/70/81 40/72/83 49/88/97
f 51/2/98 50/1/99 66/90/100 67/91/101
f 53/6/102 52/5/103 68/92/104 69/93/105
f 55/10/106 54/9/107 70/94/108 71/95/109
f 56/13/110 55/10/106 71/95/109 72/96/111
f 58/16/112 57/15/113 73/97/114 74/98/115
f 59/19/116 58/16/112 74/98/115 75/99/117
f 61/22/118 60/21/119 76/100/120 77/101/121
f 62/25/122 61/22/118 77/101/121 78/102/123
f 52/5/103 63/27/124 79/103/125 68/92/104
f 63/29/124 51/2/98 67/91/101 79/104/125
f 50/1/99 62/25/122 78/102/123 66/90/100
f 54/9/107 53/6/102 69/93/105 70/94/108
f 60/21/119 64/31/126 80/105/127 76/100/120
f 65/33/128 56/13/110 72/96/111 81/106/129
f 64/31/126 59/19/116 75/99/117 80/105/127
f 57/15/113 65/33/128 81/106/129 73/97/114
f 83/57/70 82/55/68 98/107/130 99/108/131
f 84/61/72 83/60/70 99/109/131 100/110/132
f 85/63/74 84/61/72 100/110/132 101/111/133
f 86/65/76 85/63/74 101/111/133 102/112/134
f 87/67/78 86/65/76 102/112/134 103/113/135
f 88/69/80 87/67/78 103/113/135 104/114/136
f 89/71/82 88/69/80 104/114/136 105/115/137
f 90/73/84 89/71/82 105/115/137 106/116/138
f 91/75/86 90/73/84 106/116/138 107/117/139
f 92/77/88 91/75/86 107/117/139 108/118/140
f 93/79/90 92/77/88 108/118/140 109/119/141
f 94/81/92 93/79/90 109/119/141 110/120/142
f 95/83/94 94/81/92 110/120/142 111/121/143
f 96/85/96 95/83/94 111/121/143 112/122/144
f 97/54/67 96/85/96 112/122/144 113/123/145
f 82/55/68 97/54/67 113/123/145 98/107/130
f 99/108/131 98/107/130 18/35/35 30/49/60
f 100/110/132 99/109/131 30/48/60 19/38/40
f 101/111/133 100/110/132 19/38/40 20/37/39
f 102/112/134 101/111/133 20/37/39 21/40/44
f 103/113/135 102/112/134 21/40/44 22/39/43
f 104/114/136 103/113/135 22/39/43 23/41/46
f 105/115/137 104/114/136 23/41/46 32/51/64
f 106/116/138 105/115/137 32/51/64 24/43/50
f 107/117/139 106/116/138 24/43/50 25/42/49
f 108/118/140 107/117/139 25/42/49 26/44/52
f 109/119/141 108/118/140 26/44/52 31/50/62
f 110/120/142 109/119/141 31/50/62 27/46/56
f 111/121/143 110/120/142 27/46/56 28/45/55
f 112/122/144 111/121/143 28/45/55 29/47/58
f 113/123/145 112/122/144 29/47/58 17/36/36
f 98/107/130 113/123/145 17/36/36 18/35/35
f 51/2/98 63/29/124 115/126/27 114/124/2
f 63/27/124 52/5/103 116/127/5 115/125/27
f 52/5/103 53/6/102 117/128/6 116/127/5
f 53/6/102 54/9/107 118/129/9 117/128/6
f 54/9/107 55/10/106 119/130/10 118/129/9
f 55/10/106 56/13/110 120/131/13 119/130/10
f 56/13/110 65/33/128 121/132/31 120/131/13
f 65/33/128 57/15/113 122/133/15 121/132/31
f 57/15/113 58/16/112 123/134/16 122/133/15
f 58/16/112 59/19/116 124/135/19 123/134/16
f 59/19/116 64/31/126 125/136/29 124/135/19
f 64/31/126 60/21/119 126/137/21 125/136/29
f 60/21/119 61/22/118 127/138/22 126/137/21
f 61/22/118 62/25/122 128/139/25 127/138/22
f 62/25/122 50/1/99 129/140/1 128/139/25
f 50/1/99 51/2/98 114/124/2 129/140/1
f 131/142/26 130/141/4 1/4/33 13/26/57
f 132/143/23 131/142/26 13/26/57 12/23/54
f 133/144/24 132/143/23 12/23/54 11/24/53
f 134/145/30 133/144/24 11/24/53 15/32/61
f 135/146/20 134/145/30 15/32/61 10/20/51
f 136/147/17 135/146/20 10/20/51 9/17/48
f 137/148/18 136/147/17 9/17/48 8/18/47
f 138/149/32 137/148/18 8/18/47 16/34/63
f 139/150/14 138/149/32 16/34/63 7/14/45
f 140/151/11 139/150/14 7/14/45 6/11/42
f 141/152/12 140/151/11 6/11/42 5/12/41
f 142/153/7 141/152/12 5/12/41 4/7/38
f 143/154/8 142/153/7 4/7/38 3/8/37
f 144/155/28 143/154/8 3/8/37 14/28/59
f 145/157/3 144/156/28 14/30/59 2/3/34
f 130/141/4 145/157/3 2/3/34 1/4/33
f 67/158/101 66/159/100 146/160/146 147/161/147
f 69/162/105 68/163/104 148/164/148 149/165/149
f 71/166/109 70/167/108 150/168/150 151/169/151
f 72/170/111 71/171/109 151/172/151 152/173/152
f 74/174/115 73/175/114 153/176/153 154/177/154
f 75/178/117 74/179/115 154/180/154 155/181/155
f 77/182/121 76/183/120 156/184/156 157/185/157
f 78/186/123 77/187/121 157/188/157 158/189/158
f 68/190/104 79/191/125 159/192/159 148/193/148
f 79/194/125 67/195/101 147/196/147 159/197/159
f 66/198/100 78/199/123 158/200/158 146/201/146
f 70/202/108 69/203/105 149/204/149 150/205/150
f 76/206/120 80/207/127 160/208/160 156/209/156
f 81/210/129 72/211/111 152/212/152 161/213/161
f 80/214/127 75/215/117 155/216/155 160/217/160
f 73/218/114 81/219/129 161/220/161 153/221/153
f 147/222/147 146/223/146 162/224/162
f 149/225/149 148/226/148 162/227/162
f 151/228/151 150/229/150 162/230/162
f 152/231/152 151/232/151 162/233/162
f 154/234/154 153/235/153 162/236/162
f 155/237/155 154/238/154 162/239/162
f 157/240/157 156/241/156 162/242/162
f 158/243/158 157/244/157 162/245/162
f 148/246/148 159/247/159 162/248/162
f 159/249/159 147/250/147 162/251/162
f 146/252/146 158/253/158 162/254/162
f 150/255/150 149/256/149 162/257/162
f 156/258/156 160/259/160 162/260/162
f 161/261/161 152/262/152 162/263/162
f 160/264/160 155/265/155 162/266/162
f 153/267/153 161/268/161 162/269/162
